<?xml version="1.0" encoding="UTF-8"?>
<svg version="1.1" xmlns="http://www.w3.org/2000/svg" width="300" height="300">
<path d="M0 0 C2.76769005 2.20875543 5.42550287 4.49178087 8.0546875 6.86328125 C8.82425781 7.55035156 9.59382812 8.23742187 10.38671875 8.9453125 C15.00347855 13.30333971 18.84759518 18.04426277 22.5546875 23.17578125 C22.9885376 23.77479248 23.4223877 24.37380371 23.86938477 24.9909668 C27.70238107 30.45931332 28.49809981 34.2120966 28.0546875 40.86328125 C26.68305971 47.83115041 22.79134185 51.87306804 17.0546875 55.86328125 C13.78062372 56.95463584 11.18804577 57.10026648 7.7421875 57.17578125 C6.63230469 57.21316406 5.52242187 57.25054687 4.37890625 57.2890625 C-3.13501757 56.32664453 -7.57389167 50.32065531 -12.3828125 44.98828125 C-23.80179963 32.32136283 -23.80179963 32.32136283 -39.3828125 26.30078125 C-47.54741769 27.58992944 -55.13752295 32.20224117 -60.15625 38.74609375 C-60.87039062 39.81601563 -61.58453125 40.8859375 -62.3203125 41.98828125 C-62.70896484 42.5601416 -63.09761719 43.13200195 -63.49804688 43.72119141 C-65.28819451 46.35717646 -67.04098881 49.01192857 -68.765625 51.69140625 C-74.26446312 60.0291794 -80.51935286 65.96845203 -90.41015625 68.4296875 C-101.52096098 70.32999463 -111.1214359 67.64249881 -120.56640625 61.65625 C-126.16106647 57.43958491 -130.20594209 51.85716849 -134.3828125 46.30078125 C-140.19733515 38.7419018 -147.57749832 31.2893098 -157.24609375 29.41796875 C-166.86895651 28.7119852 -174.95950515 33.91070023 -182.0703125 39.92578125 C-185.65945476 43.14023283 -187.47697076 46.07501417 -188.28125 50.86328125 C-188.58247962 66.28623777 -179.62285704 81.74915079 -170.0390625 93.3828125 C-166.65591988 97.96213769 -167.55277853 104.48199742 -167.9453125 109.86328125 C-170.01883494 115.86558304 -173.6823725 119.60125702 -179.1953125 122.67578125 C-185.07205331 124.53674917 -190.25026827 124.88684917 -196.0078125 122.42578125 C-211.94475267 113.29196178 -221.28684454 89.26739252 -226.18359375 72.73828125 C-230.50178976 56.4398594 -229.43700008 38.48489524 -221.2578125 23.67578125 C-210.1801266 6.66067561 -192.48774184 -5.38591871 -172.7578125 -10.07421875 C-155.26365665 -13.20866997 -138.22984905 -9.55757042 -123.5234375 0.5234375 C-121.26239772 2.23481071 -119.09895084 4.01898369 -116.9453125 5.86328125 C-116.19507812 6.48074219 -115.44484375 7.09820312 -114.671875 7.734375 C-108.99058229 12.55280926 -104.41644821 17.91801088 -99.9453125 23.86328125 C-99.2440625 22.94546875 -98.5428125 22.02765625 -97.8203125 21.08203125 C-72.98146312 -11.17021874 -36.09096066 -26.18269958 0 0 Z " fill="#D24040" transform="translate(234.9453125,48.13671875)"/>
<path d="M0 0 C3.97491129 3.74514763 7.79985347 7.44074933 8.23828125 13.046875 C8.26277344 14.26890625 8.28726563 15.4909375 8.3125 16.75 C8.36857422 18.56757813 8.36857422 18.56757813 8.42578125 20.421875 C7.51988069 28.0347641 1.47382814 32.80591418 -3.75 37.9375 C-4.76707031 38.95360352 -4.76707031 38.95360352 -5.8046875 39.99023438 C-9.81782968 43.96904359 -13.95073617 47.75090587 -18.22753906 51.44360352 C-20.42003704 53.36883417 -22.46872667 55.40622595 -24.5 57.5 C-27.86114482 60.9071879 -31.33701203 64.07458174 -34.96875 67.1875 C-37.23638572 69.2109288 -39.3657695 71.33653347 -41.5 73.5 C-44.86114482 76.9071879 -48.33701203 80.07458174 -51.96875 83.1875 C-54.23638572 85.2109288 -56.3657695 87.33653347 -58.5 89.5 C-61.86114482 92.9071879 -65.33701203 96.07458174 -68.96875 99.1875 C-71.23638572 101.2109288 -73.3657695 103.33653347 -75.5 105.5 C-78.86114482 108.9071879 -82.33701203 112.07458174 -85.96875 115.1875 C-88.23638572 117.2109288 -90.3657695 119.33653347 -92.5 121.5 C-95.86114482 124.9071879 -99.33701203 128.07458174 -102.96875 131.1875 C-105.23638572 133.2109288 -107.3657695 135.33653347 -109.5 137.5 C-112.86015038 140.90617984 -116.33075966 144.07584654 -119.96875 147.1796875 C-122.25778849 149.23101815 -124.36733247 151.41199225 -126.5 153.625 C-134.10684051 161.18018115 -138.67006079 163.55419829 -149.6328125 163.56640625 C-157.52721003 162.23846235 -162.54860664 155.72386346 -167.9375 150.25 C-168.71029297 149.4765625 -169.48308594 148.703125 -170.27929688 147.90625 C-174.49876325 143.65468287 -178.53832844 139.30606773 -182.44750977 134.76855469 C-184.52627638 132.40048025 -186.74300108 130.19760421 -189 128 C-192.56400302 124.47893677 -195.90304168 120.86813992 -199.15625 117.0625 C-201.34796313 114.61075311 -203.66067104 112.31114427 -206 110 C-210.21698338 105.8277422 -214.15481718 101.51268399 -218 97 C-218.55816406 96.38125 -219.11632812 95.7625 -219.69140625 95.125 C-220.22636719 94.526875 -220.76132813 93.92875 -221.3125 93.3125 C-221.78300781 92.79300781 -222.25351563 92.27351563 -222.73828125 91.73828125 C-226.69253908 86.29046473 -226.59122015 80.46527841 -226 74 C-223.97956715 67.70100346 -219.21380702 63.86062512 -213.625 60.625 C-207.88240456 59.25771537 -202.47785818 59.25672894 -197.02099609 61.73999023 C-192.3994993 64.62130758 -188.76382553 68.79727735 -185 72.6875 C-183.70449219 73.99750977 -183.70449219 73.99750977 -182.3828125 75.33398438 C-177.94969092 79.84458453 -173.677301 84.4460264 -169.55078125 89.23754883 C-167.31094477 91.78310606 -164.92621666 94.13087079 -162.5 96.5 C-158.63558161 100.30611754 -154.9607632 104.21525438 -151.4375 108.33984375 C-149.71819357 110.3254558 -147.89435001 112.18142399 -146 114 C-143.01088056 112.64991643 -140.85366274 111.13092001 -138.48828125 108.8671875 C-137.82183594 108.23425781 -137.15539062 107.60132813 -136.46875 106.94921875 C-135.40140625 105.92248047 -135.40140625 105.92248047 -134.3125 104.875 C-132.77746126 103.41393903 -131.24230168 101.95300501 -129.70703125 100.4921875 C-128.92408691 99.74420898 -128.14114258 98.99623047 -127.33447266 98.22558594 C-123.74007941 94.79884584 -120.11964021 91.40002538 -116.5 88 C-115.08318976 86.66681923 -113.66652354 85.33348539 -112.25 84 C-98.08333333 70.66666667 -83.91666667 57.33333333 -69.75 44 C-68.69800415 43.00987915 -68.69800415 43.00987915 -67.62475586 41.99975586 C-66.20892211 40.66721602 -64.79306926 39.33469647 -63.37719727 38.00219727 C-59.10787218 33.98421108 -54.83918588 29.9655482 -50.57128906 25.94604492 C-49.1584694 24.61615163 -47.74506584 23.28687833 -46.33105469 21.95825195 C-42.72705707 18.57165028 -39.13185505 15.17647032 -35.55078125 11.765625 C-34.82898682 11.08121338 -34.10719238 10.39680176 -33.36352539 9.69165039 C-31.99336388 8.39239478 -30.62645205 7.08970013 -29.26342773 5.78295898 C-20.79316276 -2.22796167 -11.00279177 -6.56722405 0 0 Z " fill="#D24040" transform="translate(286,116)"/>
</svg>
